<?xml version="1.0" encoding="UTF-8"?>
<svg version="1.1" xmlns="http://www.w3.org/2000/svg" width="138" height="138">
<path d="M0 0 C14.01781791 11.04058224 24.49427383 26.79569916 26.83984375 44.74609375 C28.4909756 67.00281417 24.24117615 85.86582906 9.33984375 103.18359375 C-4.614045 117.48632972 -22.19891494 124.92802842 -41.97265625 125.18359375 C-62.40122453 125.07516917 -78.78066673 117.78230453 -93.4140625 103.5546875 C-107.3839466 88.73653719 -111.92429854 70.18786608 -111.5390625 50.4140625 C-110.70610172 32.70095755 -102.3284214 17.34463702 -90.16015625 4.74609375 C-64.52550611 -18.11819065 -27.82735514 -19.84719891 0 0 Z " fill="#FCFCFC" transform="translate(111.16015625,13.25390625)"/>
<path d="M0 0 C2.625 0.625 2.625 0.625 4.625 3.625 C4.63671875 6.11328125 4.63671875 6.11328125 4.3125 8.9375 C4.21324219 9.86175781 4.11398438 10.78601563 4.01171875 11.73828125 C3.61317071 14.71330145 3.13613627 17.66739953 2.625 20.625 C3.15609375 19.94953125 3.6871875 19.2740625 4.234375 18.578125 C4.94078125 17.68609375 5.6471875 16.7940625 6.375 15.875 C7.07109375 14.99328125 7.7671875 14.1115625 8.484375 13.203125 C13.74060328 6.87263108 13.74060328 6.87263108 17.75 5.75 C18.69875 5.70875 19.6475 5.6675 20.625 5.625 C23.09830257 8.09830257 22.92246708 9.08732023 23.125 12.5 C23.33774153 16.0634207 23.83319683 18.51824451 25.625 21.625 C33.07334526 22.02673291 38.58369315 19.0186771 44.24902344 14.26123047 C46.43136272 12.29790036 48.56953482 10.30147094 50.65283203 8.2331543 C54.33268803 4.625 54.33268803 4.625 57.625 4.625 C50.91588631 12.92969087 41.24694801 23.22238645 30.17578125 25.0234375 C29.43714844 25.01570313 28.69851562 25.00796875 27.9375 25 C26.81794922 25.01160156 26.81794922 25.01160156 25.67578125 25.0234375 C23.11655781 24.52621695 22.23905905 23.63019606 20.625 21.625 C19.08651238 17.84871219 19.55825657 13.62960581 19.625 9.625 C14.25393934 11.04675135 11.95287585 14.48915429 8.625 18.625 C7.33976444 20.10975801 6.04813764 21.58900909 4.75 23.0625 C3.85667969 24.08150391 3.85667969 24.08150391 2.9453125 25.12109375 C2.50960937 25.61738281 2.07390625 26.11367187 1.625 26.625 C0.305 26.295 -1.015 25.965 -2.375 25.625 C-2.58470151 20.48731304 -1.77841225 16.53694289 -0.375 11.625 C-0.30096322 9.29284156 -0.27984114 6.95639212 -0.375 4.625 C-5.83277242 5.53858364 -8.25277806 9.32720461 -11.375 13.625 C-13.16915241 16.56307509 -14.84415977 19.56528682 -16.44628906 22.61206055 C-18.64208667 26.6997015 -20.99902131 29.52353861 -24.375 32.625 C-25.365 32.295 -26.355 31.965 -27.375 31.625 C-28.26598623 22.04689804 -24.34610271 11.70304191 -19.375 3.625 C-17.25 2.921875 -17.25 2.921875 -15.375 2.625 C-17.01445837 7.75688596 -19.06971439 12.6080511 -21.25390625 17.52734375 C-22.47409927 20.89881784 -22.97897342 24.06966029 -23.375 27.625 C-22.89256836 26.77119751 -22.89256836 26.77119751 -22.40039062 25.90014648 C-20.90732017 23.27848729 -19.39144088 20.6707054 -17.875 18.0625 C-17.3696875 17.16724609 -16.864375 16.27199219 -16.34375 15.34960938 C-12.50378529 8.79766959 -7.9213262 1.46691226 0 0 Z " fill="#1659B3" transform="translate(42.375,58.375)"/>
<path d="M0 0 C11.08729377 7.10901363 18.31487697 16.54421894 21.3046875 29.53515625 C23.55393758 42.61632118 20.18814622 54.35663818 12.75 65.125 C12.1725 66.011875 11.595 66.89875 11 67.8125 C1.92276418 77.14188126 -9.29189986 82.14217118 -22.1875 82.5 C-32.8760689 82.42686219 -43.12734535 79.28067195 -51.25 72.125 C-51.25 71.465 -51.25 70.805 -51.25 70.125 C-48.20014181 70.7269457 -46.25529693 71.68695617 -43.75 73.5 C-35.13985284 79.0213769 -24.45558784 80.44534209 -14.5 78.62109375 C-5.78382767 76.50257964 1.8223744 73.01386218 7.75 66.125 C8.24242188 65.56167969 8.73484375 64.99835938 9.2421875 64.41796875 C13.56872288 59.13356857 15.71194956 53.59450369 17.75 47.125 C18.08 46.135 18.41 45.145 18.75 44.125 C19.9741651 31.48198336 16.79878487 20.48244268 8.94921875 10.5 C0.87435013 1.77971559 -10.65900529 -2.6219877 -22.375 -3.125 C-35.14862768 -2.93113381 -45.31145922 2.29009447 -54.25 11.125 C-54.58 11.785 -54.91 12.445 -55.25 13.125 C-56.24 13.125 -57.23 13.125 -58.25 13.125 C-54.92888642 5.3584375 -47.14119264 0.66520387 -39.8046875 -2.8671875 C-26.30409281 -8.19311017 -12.48275601 -7.19659633 0 0 Z " fill="#FE4E4D" transform="translate(93.25,30.875)"/>
<path d="M0 0 C0.99 0 1.98 0 3 0 C1.70999229 4.01864152 0.24165583 7.87904886 -1.4375 11.75 C-3.68827366 17.07727494 -5.48235277 22.42295488 -7 28 C-7.33 28 -7.66 28 -8 28 C-9.09396526 18.25560572 -6.20119985 10.60919452 -2 2 C-1.34 1.34 -0.68 0.68 0 0 Z " fill="#2161B7" transform="translate(24,61)"/>
<path d="M0 0 C0.66 0.33 1.32 0.66 2 1 C-3.86709246 8.26241818 -10.92035676 15.97345225 -20 19 C-20.66 18.34 -21.32 17.68 -22 17 C-21.39414063 16.67128906 -20.78828125 16.34257813 -20.1640625 16.00390625 C-12.48255195 11.6431718 -6.22843761 6.22843761 0 0 Z " fill="#2E6ABB" transform="translate(98,62)"/>
<path d="M0 0 C0.66 0.99 1.32 1.98 2 3 C0.93174812 4.82142946 -0.15515702 6.63192912 -1.25 8.4375 C-2.15492187 9.95150391 -2.15492187 9.95150391 -3.078125 11.49609375 C-5 14 -5 14 -7.171875 14.91015625 C-7.77515625 14.93980469 -8.3784375 14.96945313 -9 15 C-10 14 -10 14 -10.0625 10.4375 C-10.041875 9.303125 -10.02125 8.16875 -10 7 C-9.01 7.99 -8.02 8.98 -7 10 C-3.72713318 7.2180632 -2.03572303 3.72045933 0 0 Z " fill="#2D6ABB" transform="translate(25,76)"/>
<path d="M0 0 C1.32 0.66 2.64 1.32 4 2 C3.29875 2.495 2.5975 2.99 1.875 3.5 C-1.70236753 6.61075437 -4.27632648 10.14380244 -7 14 C-7.33 13.34 -7.66 12.68 -8 12 C-8.66 11.67 -9.32 11.34 -10 11 C-6.7 7.37 -3.4 3.74 0 0 Z " fill="#2967B9" transform="translate(57,65)"/>
<path d="M0 0 C0.33 0 0.66 0 1 0 C1 1.65 1 3.3 1 5 C1.66 5 2.32 5 3 5 C3.66 3.68 4.32 2.36 5 1 C5.66 1 6.32 1 7 1 C6.45925627 4.78520613 4.92427254 6.59177555 2 9 C1.01 9 0.02 9 -1 9 C-0.67 6.03 -0.34 3.06 0 0 Z " fill="#1055B1" transform="translate(42,76)"/>
<path d="M0 0 C0.66 0.66 1.32 1.32 2 2 C2.66 1.67 3.32 1.34 4 1 C3.67 4.3 3.34 7.6 3 11 C2.34 11 1.68 11 1 11 C0.67 10.34 0.34 9.68 0 9 C-0.33 10.65 -0.66 12.3 -1 14 C-1.33 14 -1.66 14 -2 14 C-2.21192221 8.80790596 -1.5912689 4.873261 0 0 Z " fill="#2D69BB" transform="translate(42,70)"/>
<path d="M0 0 C0.99 0 1.98 0 3 0 C1.25 5.75 1.25 5.75 -1 8 C-1.66 7.67 -2.32 7.34 -3 7 C-2.25 2.25 -2.25 2.25 0 0 Z " fill="#2463B8" transform="translate(24,61)"/>
<path d="M0 0 C3.99455527 0.61454696 6.74466336 2.70646737 10 5 C9.01 5.66 8.02 6.32 7 7 C5.82780457 6.21654285 4.66236332 5.42297164 3.5 4.625 C2.8503125 4.18414062 2.200625 3.74328125 1.53125 3.2890625 C1.0259375 2.86367187 0.520625 2.43828125 0 2 C0 1.34 0 0.68 0 0 Z " fill="#FE5555" transform="translate(42,101)"/>
<path d="M0 0 C0.66 0.33 1.32 0.66 2 1 C-0.64 3.97 -3.28 6.94 -6 10 C-6.66 9.34 -7.32 8.68 -8 8 C-5.36 5.36 -2.72 2.72 0 0 Z " fill="#437AC2" transform="translate(98,62)"/>
<path d="M0 0 C0.66 0 1.32 0 2 0 C0.125 5.75 0.125 5.75 -1 8 C-1.66 8 -2.32 8 -3 8 C-2.45276317 4.62537285 -1.9451 2.91765 0 0 Z " fill="#1B5DB5" transform="translate(29,70)"/>
<path d="M0 0 C0.66 0 1.32 0 2 0 C3.80411967 2.75924185 4.0127245 3.88972103 3.625 7.25 C3.41875 8.1575 3.2125 9.065 3 10 C1.11608215 6.73454239 0.50712033 3.71888239 0 0 Z " fill="#FE5959" transform="translate(109,50)"/>
<path d="M0 0 C0.625 1.8125 0.625 1.8125 1 4 C0.01 5.485 0.01 5.485 -1 7 C-1.66 7 -2.32 7 -3 7 C-2.625 4.0625 -2.625 4.0625 -2 1 C-1.34 0.67 -0.68 0.34 0 0 Z " fill="#1156B2" transform="translate(22,67)"/>
<path d="M0 0 C0.33 0.66 0.66 1.32 1 2 C-0.32 3.65 -1.64 5.3 -3 7 C-3 6.34 -3 5.68 -3 5 C-3.66 4.67 -4.32 4.34 -5 4 C-3.35 2.68 -1.7 1.36 0 0 Z " fill="#1C5EB6" transform="translate(52,72)"/>
</svg>
